<svg xmlns="http://www.w3.org/2000/svg" viewBox="0 0 1634.19 125.41"><path d="M68.98 120.71c-.1 1.34-.75 2.64-1.93 3.45-.95.72-2.2.96-3.42.76s-2.3-.84-3-1.9c-.21-.24-.18-.57.17-.77.24-.21.57-.18.77.17.51.71 1.37 1.22 2.25 1.4s1.8-.09 2.62-.59c1.54-1.12 1.93-3.34.8-4.88-.21-.24-.18-.57.17-.77.24-.21.57-.18.77.17.61.83.87 1.86.79 2.98Zm159.74-10.62c-.44-1.03-1.15-1.82-2.07-2.28-.34-.22-.65-.09-.76.21-.22.34-.09.65.21.76 1.7.85 2.38 3 1.53 4.7-.5.82-1.19 1.48-2.06 1.73s-1.87.19-2.65-.21c-.34-.22-.65-.09-.76.21-.22.34-.09.65.21.76 1.12.62 2.37.69 3.54.31s2.17-1.18 2.69-2.25c.68-1.26.66-2.72.13-3.95ZM84.19 44.72c.53 0 1.07-.13 1.47-.4.67-.4 1.2-1.07 1.47-1.86.27-.67.13-1.6-.27-2.26l-5.19-9.46c-.8-1.47-2.66-2-4.13-1.2-.67.4-1.2 1.07-1.47 1.86-.27.67-.13 1.6.27 2.26l5.19 9.46c.53 1.07 1.6 1.6 2.66 1.6ZM79 30.61c.67 0 1.2.27 1.47.93L85.66 41c.27.4.27.8.13 1.33s-.4.8-.8 1.07c-.8.4-1.86.13-2.26-.67l-5.19-9.46c-.27-.4-.27-.93-.13-1.33.13-.53.4-.8.8-1.07.27-.13.53-.27.8-.27Zm-3.33 18.78c.53 0 1.07 0 1.47-.4.67-.4 1.2-1.07 1.47-1.86.27-.67.13-1.6-.27-2.26l-2-3.73c-.8-1.47-2.66-2-4.13-1.2-.67.4-1.2 1.2-1.47 1.86s-.13 1.6.27 2.26l2 3.73c.53 1.07 1.6 1.6 2.66 1.6Zm-2-8.39c.53 0 1.2.4 1.47.93l2 3.73c.27.4.27.93.13 1.33-.13.53-.4.8-.8 1.07-.8.4-1.86.13-2.26-.67l-2-3.73c-.27-.4-.27-.8-.13-1.33s.4-.8.8-1.07c.27-.13.53-.27.8-.27Zm18.78-.8c.53 0 1.07-.13 1.47-.4.67-.4 1.2-1.07 1.47-1.86.27-.67.13-1.6-.27-2.26L86.2 19.56c-.8-1.47-2.66-2-4.13-1.2-.67.4-1.2 1.07-1.47 1.86-.27.67-.13 1.6.27 2.26l8.92 16.12c.53 1.07 1.6 1.6 2.66 1.6Zm-8.93-20.91c.67 0 1.2.4 1.47.93l8.92 16.12c.27.4.27.93.13 1.33-.13.53-.4.8-.8 1.07-.8.4-1.86.13-2.26-.67l-8.92-16.12c-.27-.4-.27-.93-.13-1.33.13-.53.4-.8.8-1.07.27-.13.53-.27.8-.27ZM190.71 44.7c-.12.52-.11 1.08.07 1.53.24.74.78 1.42 1.51 1.86.6.41 1.54.49 2.29.24l10.46-3c1.62-.46 2.56-2.17 2.1-3.79-.24-.74-.78-1.42-1.51-1.86-.6-.41-1.54-.49-2.29-.24l-10.46 3c-1.17.29-1.93 1.21-2.17 2.26Zm15.04-1.96c-.15.65-.53 1.12-1.24 1.23l-10.46 3c-.45.17-.85.08-1.34-.17s-.7-.57-.87-1.02c-.21-.87.29-1.86 1.16-2.08l10.46-3c.45-.17.98-.05 1.34.17.49.25.7.57.87 1.02.07.29.14.58.08.85Zm-17.72-7.46c-.12.52-.24 1.05.07 1.53.24.74.78 1.42 1.51 1.86.6.41 1.54.49 2.29.24l4.11-1.13c1.62-.46 2.56-2.17 2.1-3.79-.24-.74-.91-1.45-1.51-1.86s-1.54-.49-2.29-.24l-4.11 1.13c-1.17.29-1.93 1.21-2.17 2.26Zm8.7-.09c-.12.52-.66 1.09-1.24 1.23l-4.11 1.13c-.45.17-.98.05-1.34-.17-.49-.25-.7-.57-.87-1.02-.21-.87.29-1.86 1.16-2.08l4.11-1.13c.45-.17.85-.08 1.34.17s.7.57.87 1.02c.07.29.14.58.08.85Zm-3.41 18.64c-.12.52-.11 1.08.07 1.53.24.74.78 1.42 1.51 1.86.6.41 1.54.49 2.29.24l17.84-5.18c1.62-.46 2.56-2.17 2.1-3.79-.24-.74-.78-1.42-1.51-1.86-.6-.41-1.54-.49-2.29-.24l-17.84 5.18c-1.17.29-1.93 1.21-2.17 2.26Zm22.56-4.11c-.15.65-.66 1.09-1.24 1.23l-17.84 5.18c-.45.17-.98.05-1.34-.17-.49-.25-.7-.57-.87-1.02-.21-.87.29-1.86 1.16-2.08l17.84-5.18c.45-.17.98-.05 1.34.17.49.25.7.57.87 1.02.07.29.14.58.08.85Zm-74.99 27.16c.1-.32-.08-.65-.4-.75-.32-.1-.65.08-.75.4-2.63 8.53-10.98 14.05-19.87 13.15-4.99-.51-9.48-2.93-12.65-6.81-3.17-3.88-4.63-8.77-4.12-13.76.91-8.91 8.02-15.98 16.91-16.81.33-.03.57-.32.54-.65a.59.59 0 0 0-.65-.54c-9.46.88-17.03 8.41-17.99 17.88a19.831 19.831 0 0 0 4.39 14.64c3.37 4.13 8.15 6.71 13.46 7.25.68.07 1.35.1 2.02.1 8.68 0 16.53-5.68 19.12-14.1Zm2.57-6.53c.58-.53.9-1.29.88-2.06-.2-9.15-6.57-16.97-15.49-19-.76-.18-1.56-.01-2.2.45-.64.46-1.06 1.18-1.14 1.96L124 66.57c-.08.82.2 1.54.81 2.09.62.55 1.56.9 2.8 1.03l13.7 1.39c.09 0 .18.01.28.01.69 0 1.36-.26 1.87-.74Zm-14.88-19.9a18.698 18.698 0 0 1 14.56 17.86c0 .44-.17.85-.5 1.16-.33.3-.78.45-1.22.41l-13.7-1.39c-.97-.1-1.7-.35-2.12-.73-.32-.29-.46-.64-.42-1.07l1.51-14.87a1.571 1.571 0 0 1 1.54-1.4c.11 0 .23.01.34.04ZM76 66.31h-1 1ZM36.28 79.45c.13-.12.19-.3.16-.47l-1.26-6.08a.496.496 0 0 0-.33-.37.487.487 0 0 0-.49.1l-4.63 4.13c-.13.12-.19.3-.16.47.04.17.16.32.33.37l5.9 1.95a.46.46 0 0 0 .49-.1Zm-1.91-5.5.91 4.38-4.25-1.4 3.34-2.98Zm197.97-55.83 4.2-4.58c.12-.13.16-.32.11-.49a.493.493 0 0 0-.37-.34l-6.06-1.35c-.17-.04-.36.02-.48.15s-.16.32-.11.49l1.87 5.92c.05.17.19.3.37.34.04 0 .07.01.11.01.14 0 .27-.06.37-.16Zm2.87-4.61-3.03 3.3-1.35-4.27 4.37.97ZM128.19 120.86l6.11-1.12c.18-.03.32-.16.38-.32.06-.17.03-.36-.09-.49l-4.02-4.73a.499.499 0 0 0-.85.15l-2.09 5.85c-.06.17-.03.36.09.49.1.11.24.18.38.18h.09Zm5.08-1.94-4.41.8 1.51-4.22 2.9 3.41ZM46.9 15.22l6.11-1.12c.18-.03.32-.16.38-.32s.03-.36-.09-.49l-4.02-4.73a.499.499 0 0 0-.85.15l-2.09 5.85c-.06.17-.03.36.09.49.1.11.24.18.38.18h.09Zm5.08-1.95-4.41.8 1.51-4.22 2.9 3.41Zm112.64 53.58c1.12 0 2.13-.34 2.91-1.01.34-.22.34-.56.11-.78-.22-.34-.56-.34-.78-.11-1.46 1.23-3.69 1.01-4.92-.45-.56-.78-.9-1.68-.78-2.57s.56-1.79 1.23-2.35c.34-.22.34-.56.11-.78-.22-.34-.56-.34-.78-.11-1.01.78-1.57 1.9-1.68 3.13s.22 2.46 1.01 3.36c.9 1.12 2.24 1.68 3.58 1.68Zm89.41-23.23c1.12 0 2.13-.34 2.91-1.01.34-.22.34-.56.11-.78-.22-.34-.56-.34-.78-.11-1.46 1.23-3.69 1.01-4.92-.45-.56-.78-.9-1.68-.78-2.57s.56-1.79 1.23-2.35c.34-.22.34-.56.11-.78-.22-.34-.56-.34-.78-.11-1.01.78-1.57 1.9-1.68 3.13s.22 2.46 1.01 3.36c.9 1.12 2.24 1.68 3.58 1.68Zm-175.39 77.1c.08-1.12-.18-2.15-.79-2.98-.2-.35-.53-.38-.77-.17-.35.2-.38.53-.17.77 1.12 1.54.74 3.76-.8 4.88-.82.5-1.74.77-2.62.59s-1.75-.69-2.25-1.4c-.2-.35-.53-.38-.77-.17-.35.2-.38.53-.17.77.71 1.06 1.78 1.7 3 1.9s2.47-.04 3.42-.76c1.18-.81 1.84-2.11 1.93-3.45Zm159.75-10.62c-.44-1.03-1.15-1.82-2.07-2.28-.34-.22-.65-.09-.76.21-.22.34-.09.65.21.76 1.7.85 2.38 3 1.53 4.7-.5.82-1.19 1.48-2.06 1.73s-1.87.19-2.65-.21c-.34-.22-.65-.09-.76.21-.22.34-.09.65.21.76 1.12.62 2.37.69 3.54.31s2.17-1.18 2.69-2.25c.68-1.26.66-2.72.13-3.95Zm-231.6 3.46c1.12 0 2.13-.34 2.91-1.01.34-.22.34-.56.11-.78-.22-.34-.56-.34-.78-.11-1.46 1.23-3.69 1.01-4.92-.45-.56-.78-.9-1.68-.78-2.57s.56-1.79 1.23-2.35c.34-.22.34-.56.11-.78-.22-.34-.56-.34-.78-.11-1.01.78-1.57 1.9-1.68 3.13s.22 2.46 1.01 3.36c.9 1.12 2.24 1.68 3.58 1.68Zm25.99-80.88a.5.5 0 1 0-.44-.9c-3.83 1.84-6.86 2.19-9.02 1.03-1.78-.95-2.53-2.69-3.33-4.53-.84-1.94-1.71-3.94-3.85-4.91-2.51-1.14-5.72-.65-9.55 1.45-.24.13-.33.44-.2.68.13.24.44.33.68.2 3.54-1.94 6.45-2.41 8.66-1.42 1.8.81 2.55 2.56 3.35 4.4.83 1.92 1.69 3.9 3.77 5.01.97.52 2.09.78 3.34.78 1.89 0 4.1-.6 6.59-1.79Zm-5.33 10.61c.13-.25.03-.55-.22-.67L1.74 29.53a1.37 1.37 0 0 1-.59-1.84l8.04-15.67c.13-.25.03-.55-.22-.67a.488.488 0 0 0-.67.22L.26 27.24c-.6 1.16-.14 2.59 1.02 3.18L26.77 43.5c.07.04.15.05.23.05.18 0 .36-.1.45-.27Zm248.11 60.56c.05-2.57.71-4.32 1.94-5.21.99-.71 2.18-.57 3.45-.43 1.32.15 2.81.32 4.17-.53 1.59-.99 2.51-3.03 2.73-6.06a.504.504 0 0 0-.46-.54.516.516 0 0 0-.54.46c-.2 2.7-.96 4.48-2.26 5.29-1.06.66-2.26.53-3.52.38-1.4-.16-2.84-.32-4.14.61-1.5 1.08-2.29 3.1-2.36 6 0 .28.21.5.49.51h.01c.27 0 .49-.22.5-.49Zm.71 4.94 15.66-10.13a.5.5 0 0 0 .15-.69.5.5 0 0 0-.69-.15l-15.66 10.13c-.16.1-.35.14-.54.1s-.35-.15-.45-.31l-6.23-9.63a.5.5 0 0 0-.69-.15.5.5 0 0 0-.15.69l6.23 9.63a1.74 1.74 0 0 0 1.44.79c.33 0 .65-.09.93-.28Zm-91.46-4.72c0-7.76-6.31-14.07-14.07-14.07s-14.07 6.31-14.07 14.07 6.31 14.07 14.07 14.07 14.07-6.31 14.07-14.07Zm-1 0c0 7.2-5.86 13.07-13.07 13.07s-13.07-5.86-13.07-13.07S163.53 91 170.74 91s13.07 5.86 13.07 13.07Zm-3.42 0c0-5.32-4.33-9.64-9.65-9.64s-9.64 4.33-9.64 9.64 4.33 9.64 9.64 9.64 9.65-4.33 9.65-9.64Zm-1 0c0 4.77-3.88 8.64-8.65 8.64s-8.64-3.88-8.64-8.64 3.88-8.64 8.64-8.64 8.65 3.88 8.65 8.64Zm-8.14 0h-1 1Zm0 0h-1 1Zm0 0h-1 1Zm-6.79 11.74h-1 1Zm6.79-11.74h-1 1Zm19.58 19.76a5.426 5.426 0 0 0 0-7.66l-7.21-7.2-.71.71 7.21 7.2a4.43 4.43 0 0 1 0 6.25c-.83.83-1.95 1.29-3.14 1.29s-2.29-.46-3.12-1.29l-7.09-7.09-.71.71 7.09 7.09c1.02 1.02 2.38 1.58 3.83 1.58s2.83-.56 3.85-1.58Zm23.53-34.32 10.03-8.73c.43-.39.99-.57 1.58-.54.58.04 1.11.31 1.48.76l3.7 4.5c.61.74 1.5 1.12 2.45 1.13a3.15 3.15 0 0 0 2.42-1.21l8.88-11.53c.17-.22.13-.53-.09-.7a.496.496 0 0 0-.7.09l-8.88 11.53c-.39.51-.99.81-1.64.82h-.03c-.63 0-1.23-.28-1.63-.77l-3.7-4.5a3.103 3.103 0 0 0-2.18-1.13 3.05 3.05 0 0 0-2.31.79l-10.02 8.73c-.21.18-.23.5-.05.71.1.11.24.17.38.17.12 0 .23-.04.33-.12Zm30.98-9.79c.28-.01.49-.25.48-.52l-.27-6.13a.509.509 0 0 0-.52-.48l-6.96.3c-.28.01-.49.25-.48.52.01.28.25.46.52.48l6.46-.28.25 5.63c.01.27.23.48.5.48h.02Zm-86.59-58.19c0-6.07-4.94-11.01-11.02-11.01s-11.02 4.94-11.02 11.01 4.94 11.01 11.02 11.01 11.02-4.94 11.02-11.01Zm-1 0c0 5.52-4.49 10.01-10.02 10.01s-10.02-4.49-10.02-10.01 4.49-10.01 10.02-10.01 10.02 4.49 10.02 10.01Zm11.51 0c0-6.07-4.94-11.01-11.02-11.01s-11.02 4.94-11.02 11.01 4.94 11.01 11.02 11.01 11.02-4.94 11.02-11.01Zm-1 0c0 5.52-4.49 10.01-10.02 10.01s-10.02-4.49-10.02-10.01 4.49-10.01 10.02-10.01 10.02 4.49 10.02 10.01Zm-4.12-10.51C164.14 4.95 159.2 0 153.12 0S142.1 4.94 142.1 11.02s4.94 11.01 11.02 11.01 11.02-4.94 11.02-11.01Zm-1 0c0 5.52-4.49 10.01-10.02 10.01s-10.02-4.49-10.02-10.01S147.59 1 153.12 1s10.02 4.49 10.02 10.02Zm-7.63 3.42-.71-.71-6.26 6.26.71.71 6.26-6.26Zm1.78 2.35-.71-.71-5.09 5.09.71.71 5.09-5.09ZM84.83 88.54c0-8.47-6.89-15.36-15.36-15.36s-15.36 6.89-15.36 15.36S61 103.9 69.47 103.9s15.36-6.89 15.36-15.36Zm-1 0c0 7.92-6.44 14.36-14.36 14.36s-14.36-6.44-14.36-14.36 6.44-14.36 14.36-14.36 14.36 6.44 14.36 14.36Zm-6.36 0c0-4.41-3.59-8-8-8s-8 3.59-8 8 3.59 8 8 8 8-3.59 8-8Zm-1 0c0 3.86-3.14 7-7 7s-7-3.14-7-7 3.14-7 7-7 7 3.14 7 7Zm-6.5-14.86h-1v7.37h1v-7.37Zm0 14.85h-1v.02l1-.02Zm0-14.85h-1v7.37h1v-7.37Zm0 14.85h-1v.02l1-.02Zm12.62 7-6.37-3.67-.5.87 6.37 3.67.5-.87Zm-12.62-7h-1v.02l1-.02Zm-6.74 4.19-.5-.87-6.37 3.67.5.87 6.37-3.67Zm-.69 8.67h-1v.02l1-.02Zm7.43-12.86h-1v.02l1-.02Zm0 7.5h-1v6.79h1v-6.79Zm6.8 4.71-3.37-5.83-.87.5 3.37 5.83.87-.5ZM66.4 95.41l-.87-.5-3.37 5.83.87.5 3.37-5.83Zm285.11-54.9c.28.45.68.83 1.12 1.03.69.35 1.54.45 2.36.25.71-.13 1.42-.74 1.78-1.43l5.25-9.43c.82-1.46.28-3.32-1.18-4.13-.69-.35-1.54-.45-2.36-.25-.71.13-1.42.74-1.78 1.43l-5.25 9.43c-.62 1.02-.5 2.2.06 3.11Zm9.19-11.9c.35.56.41 1.16-.01 1.74l-5.25 9.43c-.2.44-.54.65-1.06.82s-.89.09-1.33-.11c-.76-.46-1.1-1.51-.64-2.27l5.25-9.43c.2-.44.65-.72 1.06-.82.52-.17.89-.09 1.33.11.25.15.51.31.65.54Zm-17.67 7.16c.28.45.57.9 1.12 1.03.69.35 1.54.45 2.36.25.71-.13 1.42-.74 1.78-1.43l2.1-3.67c.82-1.46.28-3.32-1.18-4.13-.69-.35-1.65-.38-2.36-.25s-1.42.74-1.78 1.43l-2.1 3.67c-.62 1.02-.5 2.2.06 3.11Zm6.04-6.15c.28.45.3 1.23-.01 1.74l-2.1 3.67c-.2.44-.65.72-1.06.82-.52.17-.89.09-1.33-.11-.76-.46-1.1-1.51-.64-2.27l2.1-3.67c.2-.44.54-.65 1.06-.82s.89-.09 1.33.11c.25.15.51.31.65.54Zm10.66 15.48c.28.45.68.83 1.12 1.03.69.35 1.54.45 2.36.25.71-.13 1.42-.74 1.78-1.43l8.9-16.13c.82-1.46.28-3.32-1.18-4.13-.69-.35-1.54-.45-2.36-.25-.71.13-1.42.74-1.78 1.43L359.67 42c-.62 1.02-.5 2.2.06 3.11Zm12.97-18.67c.35.56.3 1.23-.01 1.74l-8.9 16.13c-.2.44-.65.72-1.06.82-.52.17-.89.09-1.33-.11-.76-.46-1.1-1.51-.64-2.27l8.9-16.13c.2-.44.65-.72 1.06-.82.52-.17.89-.09 1.33.11.25.15.51.31.65.54Zm100.71 9.94c-.49.22-.92.56-1.18.97-.45.64-.66 1.48-.57 2.32.03.72.54 1.52 1.18 1.97l8.69 6.54c1.34 1.02 3.28.73 4.29-.61.45-.64.66-1.48.57-2.32-.03-.72-.54-1.52-1.18-1.97l-8.69-6.54c-.93-.76-2.13-.81-3.11-.37Zm10.62 10.83c-.61.28-1.21.25-1.73-.25l-8.69-6.54c-.41-.26-.58-.62-.67-1.17s.04-.9.29-1.31c.57-.7 1.66-.89 2.36-.33l8.69 6.54c.41.26.63.75.67 1.17.1.54-.04.9-.29 1.31-.19.23-.38.47-.62.58Zm-4.72-18.65c-.49.22-.98.44-1.18.97-.45.64-.66 1.48-.57 2.32.03.72.54 1.52 1.18 1.97l3.38 2.6c1.34 1.02 3.28.73 4.29-.61.45-.64.61-1.6.57-2.32s-.54-1.52-1.18-1.97l-3.38-2.6c-.93-.76-2.13-.81-3.11-.37Zm5.31 6.89c-.49.22-1.27.13-1.73-.25l-3.38-2.6c-.41-.26-.63-.75-.67-1.17-.1-.54.04-.9.29-1.31.57-.7 1.66-.89 2.36-.33l3.38 2.6c.41.26.58.62.67 1.17s-.04.9-.29 1.31c-.19.23-.38.47-.62.58Zm-16.93 8.51c-.49.22-.92.56-1.18.97-.45.64-.66 1.48-.57 2.32.03.72.54 1.52 1.18 1.97L482 60.33c1.34 1.02 3.28.73 4.29-.61.45-.64.66-1.48.57-2.32-.03-.72-.54-1.52-1.18-1.97L470.8 44.31c-.93-.76-2.13-.81-3.11-.37Zm16.87 15.53c-.61.28-1.27.13-1.73-.25l-14.88-11.12c-.41-.26-.63-.75-.67-1.17-.1-.54.04-.9.29-1.31.57-.7 1.66-.89 2.36-.33l14.88 11.12c.41.26.63.75.67 1.17.1.54-.04.9-.29 1.31-.19.23-.38.47-.62.58ZM409.5 89.43c4.82-2.28 8.46-6.31 10.26-11.33 3.2-8.95-.39-18.99-8.53-23.88a.592.592 0 0 0-.82.21c-.17.28-.08.65.21.82 7.65 4.59 11.02 14.03 8.02 22.44-1.69 4.72-5.11 8.51-9.64 10.65-4.53 2.15-9.62 2.4-14.35.71-8.44-3.01-13.6-11.61-12.28-20.44a.599.599 0 0 0-.5-.68.606.606 0 0 0-.68.5c-1.41 9.4 4.09 18.54 13.06 21.75 2.2.78 4.47 1.17 6.73 1.17 2.92 0 5.82-.65 8.53-1.93Zm-10.11-21.55c.69-.47 1.25-1.3 1.67-2.47l4.63-12.97a2.75 2.75 0 0 0-1.97-3.61 19.92 19.92 0 0 0-22.16 10.5l.54.27-.54-.27c-.35.7-.38 1.51-.09 2.24.29.74.89 1.31 1.63 1.58l14.08 5.03c.29.1.57.15.85.15.48 0 .94-.15 1.37-.44Zm4.06-17.89c.43.09.79.37 1 .76.22.39.25.86.1 1.28L399.92 65c-.33.91-.75 1.57-1.21 1.89-.36.25-.73.29-1.14.15l-14.08-5.03c-.42-.15-.75-.48-.92-.89a1.5 1.5 0 0 1 .05-1.26 18.71 18.71 0 0 1 16.72-10.32c1.36 0 2.74.15 4.11.46ZM353.2 66.31h-1 1Zm-39.72 13.14c.13-.12.19-.3.16-.47l-1.26-6.08a.496.496 0 0 0-.33-.37.487.487 0 0 0-.49.1l-4.63 4.13c-.13.12-.19.3-.16.47s.16.32.33.37l5.9 1.95a.46.46 0 0 0 .49-.1Zm-1.91-5.5.91 4.38-4.25-1.4 3.34-2.98Zm197.97-55.83 4.2-4.58c.12-.13.16-.32.11-.49a.493.493 0 0 0-.37-.34l-6.06-1.35a.509.509 0 0 0-.48.15c-.12.13-.16.32-.11.49l1.87 5.92c.05.17.19.3.37.34.04 0 .07.01.11.01.14 0 .27-.06.37-.16Zm2.87-4.61-3.03 3.3-1.35-4.27 4.37.97ZM405.39 120.86l6.11-1.12c.18-.03.32-.16.38-.32.06-.17.03-.36-.09-.49l-4.02-4.73a.499.499 0 0 0-.85.15l-2.09 5.85c-.06.17-.03.36.09.49.1.11.24.18.38.18h.09Zm5.08-1.94-4.41.8 1.51-4.22 2.9 3.41Zm153.42-7.79 6.11-1.12c.18-.03.32-.16.38-.32.06-.17.03-.36-.09-.49l-4.02-4.73a.499.499 0 0 0-.85.15l-2.09 5.85c-.06.17-.03.36.09.49.1.11.24.18.38.18h.09Zm5.08-1.95-4.41.8 1.51-4.22 2.9 3.41ZM441.82 66.85c1.12 0 2.13-.34 2.91-1.01.34-.22.34-.56.11-.78-.22-.34-.56-.34-.78-.11-1.46 1.23-3.69 1.01-4.92-.45-.56-.78-.9-1.68-.78-2.57s.56-1.79 1.23-2.35c.34-.22.34-.56.11-.78-.22-.34-.56-.34-.78-.11-1.01.78-1.57 1.9-1.68 3.13s.22 2.46 1.01 3.36c.9 1.12 2.24 1.68 3.58 1.68Zm89.41-23.23c1.12 0 2.13-.34 2.91-1.01.34-.22.34-.56.11-.78-.22-.34-.56-.34-.78-.11-1.46 1.23-3.69 1.01-4.92-.45-.56-.78-.9-1.68-.78-2.57s.56-1.79 1.23-2.35c.34-.22.34-.56.11-.78-.22-.34-.56-.34-.78-.11-1.01.78-1.57 1.9-1.68 3.13s.22 2.46 1.01 3.36c.9 1.12 2.24 1.68 3.58 1.68Zm-175.39 77.1c.08-1.12-.18-2.15-.79-2.98-.2-.35-.53-.38-.77-.17-.35.2-.38.53-.17.77 1.12 1.54.74 3.76-.8 4.88-.82.5-1.74.77-2.62.59s-1.75-.69-2.25-1.4c-.2-.35-.53-.38-.77-.17-.35.2-.38.53-.17.77.71 1.06 1.78 1.7 3 1.9s2.47-.04 3.42-.76c1.18-.81 1.84-2.11 1.93-3.45Zm159.75-10.62c-.44-1.03-1.15-1.82-2.07-2.28-.34-.22-.65-.09-.76.21-.22.34-.09.65.21.76 1.7.85 2.38 3 1.53 4.7-.5.82-1.19 1.48-2.06 1.73s-1.87.19-2.65-.21c-.34-.22-.65-.09-.76.21-.22.34-.09.65.21.76 1.12.62 2.37.69 3.54.31s2.17-1.18 2.69-2.25c.68-1.26.66-2.72.13-3.95ZM309.98 32.68a.5.5 0 1 0-.44-.9c-3.83 1.84-6.87 2.19-9.02 1.03-1.78-.95-2.53-2.69-3.32-4.53-.84-1.94-1.71-3.94-3.85-4.91-2.51-1.14-5.72-.65-9.55 1.45-.24.13-.33.44-.2.68.13.24.44.33.68.2 3.54-1.94 6.45-2.41 8.66-1.42 1.8.81 2.55 2.56 3.35 4.4.83 1.92 1.69 3.9 3.77 5.01.97.52 2.09.78 3.34.78 1.89 0 4.1-.6 6.59-1.79Zm-5.33 10.61c.13-.25.03-.55-.22-.67l-25.49-13.08a1.37 1.37 0 0 1-.59-1.84l8.04-15.67c.13-.25.03-.55-.22-.67a.49.49 0 0 0-.67.22l-8.04 15.67c-.29.56-.34 1.2-.15 1.8.19.6.61 1.09 1.17 1.38l25.49 13.08c.07.04.15.05.23.05.18 0 .36-.1.45-.27Zm136.4-26.36c0-7.75-6.31-14.06-14.07-14.06s-14.07 6.31-14.07 14.06S419.22 31 426.98 31s14.07-6.31 14.07-14.07Zm-1 0c0 7.2-5.86 13.07-13.07 13.07s-13.07-5.86-13.07-13.07 5.86-13.06 13.07-13.06 13.07 5.86 13.07 13.06Zm-3.42 0c0-5.32-4.33-9.64-9.64-9.64s-9.65 4.33-9.65 9.64 4.33 9.64 9.65 9.64 9.64-4.33 9.64-9.64Zm-1 0c0 4.77-3.88 8.64-8.64 8.64s-8.65-3.88-8.65-8.64 3.88-8.64 8.65-8.64 8.64 3.88 8.64 8.64Zm-8.14-.01h-1 1Zm0 0h-1 1Zm0 0h-1 1Zm-6.79 11.75h-1v.02l1-.02Zm6.79-11.75h-1 1Zm19.58 19.77a5.426 5.426 0 0 0 0-7.66l-7.21-7.2-.71.71 7.21 7.2a4.43 4.43 0 0 1 0 6.25c-.83.83-1.95 1.29-3.14 1.29s-2.29-.46-3.12-1.29l-7.09-7.09-.71.71 7.09 7.09c1.02 1.02 2.38 1.58 3.83 1.58s2.82-.56 3.85-1.58Zm72.02 48.11 10.03-8.73c.43-.39.99-.58 1.57-.54.58.04 1.11.31 1.48.76l3.7 4.5c.59.72 1.47 1.14 2.4 1.14h.05a3.12 3.12 0 0 0 2.42-1.21l8.88-11.53c.17-.22.13-.53-.09-.7a.496.496 0 0 0-.7.09l-8.88 11.53c-.39.51-.99.81-1.64.82h-.03c-.63 0-1.23-.28-1.63-.77l-3.7-4.5a3.066 3.066 0 0 0-2.18-1.13c-.87-.07-1.68.22-2.31.79l-10.02 8.73c-.21.18-.23.5-.05.71.1.11.24.17.38.17.12 0 .23-.04.33-.12Zm30.98-9.79c.28-.01.49-.25.48-.52l-.27-6.13a.495.495 0 0 0-.52-.48l-6.96.3c-.28.01-.49.25-.48.52.01.27.25.48.52.48l6.46-.28.25 5.63c.01.27.23.48.5.48h.02Zm-87.37 31.24c0-6.07-4.94-11.01-11.02-11.01s-11.02 4.94-11.02 11.01 4.94 11.02 11.02 11.02 11.02-4.94 11.02-11.02Zm-1 0c0 5.52-4.49 10.02-10.02 10.02s-10.02-4.49-10.02-10.02 4.49-10.01 10.02-10.01 10.02 4.49 10.02 10.01Zm11.51 0c0-6.07-4.94-11.01-11.02-11.01s-11.02 4.94-11.02 11.01 4.94 11.02 11.02 11.02 11.02-4.94 11.02-11.02Zm-1 0c0 5.52-4.49 10.02-10.02 10.02s-10.02-4.49-10.02-10.02 4.49-10.01 10.02-10.01 10.02 4.49 10.02 10.01Zm-4.12-10.52c0-6.07-4.94-11.02-11.02-11.02s-11.02 4.94-11.02 11.02 4.94 11.01 11.02 11.01 11.02-4.94 11.02-11.01Zm-1 0c0 5.52-4.49 10.01-10.02 10.01s-10.02-4.49-10.02-10.01 4.49-10.02 10.02-10.02 10.02 4.49 10.02 10.02Zm-7.63 3.43-.71-.71-6.26 6.26.71.71 6.26-6.26Zm1.77 2.35-.71-.71-5.09 5.09.71.71 5.09-5.09Zm-99.2-12.97c0-8.47-6.89-15.36-15.36-15.36s-15.36 6.89-15.36 15.36 6.89 15.36 15.36 15.36 15.36-6.89 15.36-15.36Zm-1 0c0 7.92-6.44 14.36-14.36 14.36s-14.36-6.44-14.36-14.36 6.44-14.36 14.36-14.36 14.36 6.44 14.36 14.36Zm-6.37 0c0-4.41-3.59-8-8-8s-8 3.59-8 8 3.59 8 8 8 8-3.59 8-8Zm-1 0c0 3.86-3.14 7-7 7s-7-3.14-7-7 3.14-7 7-7 7 3.14 7 7Zm-6.49-14.86h-1v7.37h1v-7.37Zm0 14.85h-1v.02l1-.02Zm0-14.85h-1v7.37h1v-7.37Zm0 14.85h-1v.02l1-.02Zm12.62 7-6.37-3.67-.5.87 6.37 3.67.5-.87Zm-12.62-7h-1v.02l1-.02Zm-6.74 4.19-.5-.87-6.37 3.67.5.87 6.37-3.67Zm-.69 8.67h-1v.02l1-.02Zm7.43-12.86h-1v.02l1-.02Zm0 7.5h-1v6.79h1v-6.79Zm6.8 4.71-3.37-5.83-.87.5 3.37 5.83.87-.5Zm-10.37-5.33-.87-.5-3.37 5.83.87.5 3.37-5.83Zm294.99-50.69c.53 0 1.07-.13 1.47-.4.67-.4 1.2-1.07 1.47-1.86.27-.67.13-1.6-.27-2.26l-5.19-9.46c-.8-1.47-2.66-2-4.13-1.2-.67.4-1.2 1.07-1.47 1.86-.27.67-.13 1.6.27 2.26l5.19 9.46c.53 1.07 1.6 1.6 2.66 1.6Zm-5.2-14.11c.67 0 1.2.27 1.47.93l5.19 9.46c.27.4.27.8.13 1.33s-.4.8-.8 1.07c-.8.4-1.86.13-2.26-.67l-5.19-9.46c-.27-.4-.27-.93-.13-1.33.13-.53.4-.8.8-1.07.27-.13.53-.27.8-.27Zm-3.33 18.78c.53 0 1.07 0 1.47-.4.67-.4 1.2-1.07 1.47-1.86.27-.67.13-1.6-.27-2.26l-2-3.73c-.8-1.47-2.66-2-4.13-1.2-.67.4-1.2 1.2-1.47 1.86s-.13 1.6.27 2.26l2 3.73c.53 1.07 1.6 1.6 2.66 1.6ZM628.07 41c.53 0 1.2.4 1.47.93l2 3.73c.27.4.27.93.13 1.33-.13.53-.4.8-.8 1.07-.8.4-1.86.13-2.26-.67l-2-3.73c-.27-.4-.27-.8-.13-1.33s.4-.8.8-1.07c.27-.13.53-.27.8-.27Zm18.78-.8c.53 0 1.07-.13 1.47-.4.67-.4 1.2-1.07 1.47-1.86.27-.67.13-1.6-.27-2.26l-8.92-16.12c-.8-1.47-2.66-2-4.13-1.2-.67.4-1.2 1.07-1.47 1.86-.27.67-.13 1.6.27 2.26l8.92 16.12c.53 1.07 1.6 1.6 2.66 1.6Zm-8.93-20.91c.67 0 1.2.4 1.47.93l8.92 16.12c.27.4.27.93.13 1.33-.13.53-.4.8-.8 1.07-.8.4-1.86.13-2.26-.67l-8.92-16.12c-.27-.4-.27-.93-.13-1.33.13-.53.4-.8.8-1.07.27-.13.53-.27.8-.27Zm59.75-.27c-.12.52-.11 1.08.07 1.53.24.74.78 1.42 1.51 1.86.6.41 1.54.49 2.29.24l10.46-3c1.62-.46 2.56-2.17 2.1-3.79-.24-.74-.78-1.42-1.51-1.86-.6-.41-1.54-.49-2.29-.24l-10.46 3c-1.17.29-1.93 1.21-2.17 2.26Zm15.04-1.96c-.15.65-.53 1.12-1.24 1.23l-10.46 3c-.45.17-.85.08-1.34-.17s-.7-.57-.87-1.02c-.21-.87.29-1.86 1.16-2.08l10.46-3c.45-.17.98-.05 1.34.17.49.25.7.57.87 1.02.07.29.14.58.08.85Zm-17.72-7.47c-.12.52-.24 1.05.07 1.53.24.74.78 1.42 1.51 1.86.6.41 1.54.49 2.29.24l4.11-1.13c1.62-.46 2.56-2.17 2.1-3.79-.24-.74-.91-1.45-1.51-1.86s-1.54-.49-2.29-.24l-4.11 1.13c-1.17.29-1.93 1.21-2.17 2.26Zm8.7-.09c-.12.52-.66 1.09-1.24 1.23l-4.11 1.13c-.45.17-.98.05-1.34-.17-.49-.25-.7-.57-.87-1.02-.21-.87.29-1.86 1.16-2.08l4.11-1.13c.45-.17.85-.08 1.34.17s.7.57.87 1.02c.07.29.14.58.08.85Zm-3.41 18.65c-.12.52-.11 1.08.07 1.53.24.74.78 1.42 1.51 1.86.6.41 1.54.49 2.29.24l17.84-5.18c1.62-.46 2.56-2.17 2.1-3.79-.24-.74-.78-1.42-1.51-1.86-.6-.41-1.54-.49-2.29-.24l-17.84 5.18c-1.17.29-1.93 1.21-2.17 2.26Zm22.56-4.11c-.15.65-.66 1.09-1.24 1.23l-17.84 5.18c-.45.17-.98.05-1.34-.17-.49-.25-.7-.57-.87-1.02-.21-.87.29-1.86 1.16-2.08L720.55 22c.45-.17.98-.05 1.34.17.49.25.7.57.87 1.02.07.29.14.58.08.85Zm-27.55 52.84c.1-.32-.08-.65-.4-.75-.32-.1-.65.08-.75.4-2.63 8.53-10.98 14.05-19.87 13.15-4.99-.51-9.48-2.93-12.65-6.81-3.17-3.88-4.63-8.77-4.12-13.76.91-8.91 8.02-15.98 16.91-16.81.33-.03.57-.32.54-.65a.596.596 0 0 0-.65-.54c-9.46.88-17.03 8.41-17.99 17.88a19.831 19.831 0 0 0 4.39 14.64c3.37 4.13 8.15 6.71 13.46 7.25.68.07 1.35.1 2.02.1 8.68 0 16.53-5.68 19.12-14.1Zm2.57-6.53c.58-.53.9-1.29.88-2.06-.2-9.15-6.57-16.97-15.5-19-.76-.18-1.56-.01-2.2.45-.64.46-1.06 1.18-1.14 1.96l-1.51 14.87c-.06.64 0 2.75 3.61 3.11l13.7 1.39c.09 0 .18.01.28.01.69 0 1.36-.26 1.87-.73Zm-14.88-19.9a18.698 18.698 0 0 1 14.56 17.86c0 .44-.17.86-.5 1.16-.33.3-.77.45-1.21.41l-13.7-1.39c-1.01-.1-2.67-.47-2.54-1.8l1.51-14.87a1.549 1.549 0 0 1 1.53-1.4c.11 0 .23.01.34.04ZM630.4 66.31h-1 1Zm-39.73 13.14c.13-.12.19-.3.16-.47l-1.26-6.08a.496.496 0 0 0-.33-.37.487.487 0 0 0-.49.1l-4.63 4.13c-.13.12-.19.3-.16.47s.16.32.33.37l5.9 1.95a.46.46 0 0 0 .49-.1Zm-1.9-5.5.91 4.38-4.25-1.4 3.34-2.98Zm197.97-55.83 4.2-4.58c.12-.13.16-.32.11-.49a.493.493 0 0 0-.37-.34l-6.06-1.35c-.17-.04-.36.02-.48.15s-.16.32-.11.49l1.87 5.92c.05.17.19.3.37.34.04 0 .07.01.11.01.14 0 .27-.06.37-.16Zm2.87-4.61-3.03 3.3-1.35-4.27 4.37.97ZM682.59 120.86l6.11-1.12c.18-.03.32-.16.38-.32.06-.17.03-.36-.09-.49l-4.02-4.73a.499.499 0 0 0-.85.15l-2.09 5.85c-.06.17-.03.36.09.49.1.11.24.18.38.18h.09Zm5.08-1.94-4.41.8 1.51-4.22 2.9 3.41ZM492.1 84.77l6.11-1.12c.18-.03.32-.16.38-.32.06-.17.03-.36-.09-.49l-4.02-4.73a.499.499 0 0 0-.85.15l-2.09 5.85c-.06.17-.03.36.09.49.1.11.24.18.38.18h.09Zm5.08-1.94-4.41.8 1.51-4.22 2.9 3.41Zm221.84-15.98c1.12 0 2.13-.34 2.91-1.01.34-.22.34-.56.11-.78-.22-.34-.56-.34-.78-.11-1.46 1.23-3.69 1.01-4.92-.45-.56-.78-.9-1.68-.78-2.57s.56-1.79 1.23-2.35c.34-.22.34-.56.11-.78-.22-.34-.56-.34-.78-.11-1.01.78-1.57 1.9-1.68 3.13s.22 2.46 1.01 3.36c.9 1.12 2.24 1.68 3.58 1.68Zm89.41-23.23c1.12 0 2.13-.34 2.91-1.01.34-.22.34-.56.11-.78-.22-.34-.56-.34-.78-.11-1.46 1.23-3.69 1.01-4.92-.45-.56-.78-.9-1.68-.78-2.57s.56-1.79 1.23-2.35c.34-.22.34-.56.11-.78-.22-.34-.56-.34-.78-.11-1.01.78-1.57 1.9-1.68 3.13s.22 2.46 1.01 3.36c.9 1.12 2.24 1.68 3.58 1.68Zm-175.39 77.1c.08-1.12-.18-2.15-.79-2.98-.2-.35-.53-.38-.77-.17-.35.2-.38.53-.17.77 1.12 1.54.74 3.76-.8 4.88-.82.5-1.74.77-2.62.59s-1.75-.69-2.25-1.4c-.2-.35-.53-.38-.77-.17-.35.2-.38.53-.17.77.71 1.06 1.78 1.7 3 1.9s2.47-.04 3.42-.76c1.18-.81 1.84-2.11 1.93-3.45Zm159.75-10.62c-.44-1.03-1.15-1.82-2.07-2.28-.34-.22-.65-.09-.76.21-.22.34-.09.65.21.76 1.7.85 2.38 3 1.53 4.7-.5.82-1.19 1.48-2.06 1.73s-1.87.19-2.65-.21c-.34-.22-.65-.09-.76.21-.22.34-.09.65.21.76 1.12.62 2.37.69 3.54.31s2.17-1.18 2.69-2.25c.68-1.26.66-2.72.13-3.95ZM610.48 11.95c1.12 0 2.13-.34 2.91-1.01.34-.22.34-.56.11-.78-.22-.34-.56-.34-.78-.11-1.46 1.23-3.69 1.01-4.92-.45-.56-.78-.9-1.68-.78-2.57s.56-1.79 1.23-2.35c.34-.22.34-.56.11-.78-.22-.34-.56-.34-.78-.11-1.01.78-1.57 1.9-1.68 3.13s.22 2.46 1.01 3.36c.9 1.12 2.24 1.68 3.58 1.68Zm-23.3 20.73a.5.5 0 1 0-.44-.9c-3.83 1.84-6.86 2.19-9.02 1.03-1.78-.95-2.53-2.69-3.33-4.53-.84-1.94-1.71-3.94-3.85-4.91-2.51-1.14-5.72-.65-9.55 1.45-.24.13-.33.44-.2.68.13.24.44.33.68.2 3.54-1.94 6.45-2.42 8.66-1.42 1.8.81 2.55 2.56 3.35 4.4.83 1.92 1.69 3.9 3.77 5.01.97.52 2.09.78 3.34.78 1.89 0 4.1-.6 6.59-1.79Zm-5.34 10.61c.13-.25.03-.55-.22-.67l-25.49-13.08a1.37 1.37 0 0 1-.59-1.84l8.04-15.67c.13-.25.03-.55-.22-.67a.49.49 0 0 0-.67.22l-8.04 15.67a2.374 2.374 0 0 0 1.02 3.18l25.49 13.08c.07.04.15.05.23.05.18 0 .36-.1.45-.27Zm157.37 60.78c0-7.76-6.31-14.07-14.07-14.07s-14.07 6.31-14.07 14.07 6.31 14.07 14.07 14.07 14.07-6.31 14.07-14.07Zm-1 0c0 7.2-5.86 13.07-13.07 13.07s-13.07-5.86-13.07-13.07S717.93 91 725.14 91s13.07 5.86 13.07 13.07Zm-3.42 0c0-5.32-4.33-9.64-9.65-9.64s-9.65 4.33-9.65 9.64 4.33 9.64 9.65 9.64 9.65-4.33 9.65-9.64Zm-1 0c0 4.77-3.88 8.64-8.65 8.64s-8.65-3.88-8.65-8.64 3.88-8.64 8.65-8.64 8.65 3.88 8.65 8.64Zm-8.14 0h-1 1Zm0 0h-1 1Zm0 0h-1 1Zm-6.79 11.74h-1 1Zm6.79-11.74h-1 1Zm19.58 19.76a5.426 5.426 0 0 0 0-7.66l-7.21-7.2-.71.71 7.21 7.2a4.43 4.43 0 0 1 0 6.25c-.83.83-1.95 1.29-3.14 1.29s-2.29-.46-3.12-1.29l-7.09-7.09-.71.71 7.09 7.09c1.02 1.02 2.38 1.58 3.83 1.58s2.83-.56 3.85-1.58Zm23.53-34.32 10.03-8.73c.43-.39 1-.58 1.57-.54.58.04 1.11.31 1.48.76l3.7 4.5c.61.74 1.48 1.12 2.45 1.13a3.15 3.15 0 0 0 2.42-1.21l8.88-11.53c.17-.22.13-.53-.09-.7a.496.496 0 0 0-.7.09l-8.88 11.53c-.39.51-.99.81-1.64.82h-.03c-.63 0-1.23-.28-1.63-.77l-3.7-4.5a3.103 3.103 0 0 0-2.18-1.13c-.85-.07-1.68.22-2.31.79l-10.02 8.73c-.21.18-.23.5-.05.71.1.11.24.17.38.17.12 0 .23-.04.33-.12Zm30.98-9.79c.28-.01.49-.25.48-.52l-.27-6.13c-.01-.28-.27-.48-.52-.48l-6.96.3c-.28.01-.49.25-.48.52.01.28.23.46.52.48l6.46-.28.25 5.63c.01.27.23.48.5.48h.02Zm-37.01-25.99c0-6.07-4.94-11.02-11.02-11.02s-11.02 4.94-11.02 11.02 4.94 11.01 11.02 11.01 11.02-4.94 11.02-11.01Zm-1 0c0 5.52-4.49 10.01-10.02 10.01s-10.02-4.49-10.02-10.01 4.49-10.02 10.02-10.02 10.02 4.49 10.02 10.02Zm11.51 0c0-6.07-4.94-11.02-11.02-11.02s-11.02 4.94-11.02 11.02 4.94 11.01 11.02 11.01 11.02-4.94 11.02-11.01Zm-1 0c0 5.52-4.49 10.01-10.02 10.01s-10.02-4.49-10.02-10.01 4.49-10.02 10.02-10.02 10.02 4.49 10.02 10.02Zm-4.12-10.52c0-6.07-4.94-11.01-11.02-11.01s-11.02 4.94-11.02 11.01 4.94 11.02 11.02 11.02 11.02-4.94 11.02-11.02Zm-1 0c0 5.52-4.49 10.02-10.02 10.02s-10.02-4.49-10.02-10.02 4.49-10.01 10.02-10.01 10.02 4.49 10.02 10.01Zm-7.63 3.43-.71-.71-6.26 6.26.71.71 6.26-6.26Zm1.78 2.35-.71-.71-5.09 5.09.71.71 5.09-5.09Zm-130.49 53.26c3.66-1.85 6.39-5.01 7.67-8.9 1.29-3.89.98-8.06-.87-11.72a15.237 15.237 0 0 0-8.9-7.67c-8.04-2.66-16.74 1.73-19.39 9.77s1.73 16.74 9.77 19.4c1.58.52 3.21.78 4.83.78 2.37 0 4.72-.55 6.89-1.65Zm-2.41-27.35c3.64 1.2 6.6 3.75 8.32 7.17 1.72 3.42 2.01 7.32.81 10.96a14.25 14.25 0 0 1-7.17 8.32 14.256 14.256 0 0 1-10.96.81c-7.52-2.48-11.61-10.62-9.13-18.13 1.99-6.03 7.62-9.86 13.64-9.86 1.49 0 3 .23 4.49.72Zm3.09 16.14c.67-2.03.51-4.2-.45-6.1a7.945 7.945 0 0 0-4.64-4 7.937 7.937 0 0 0-6.1.45 7.945 7.945 0 0 0-4 4.64c-1.38 4.19.9 8.72 5.09 10.1.83.27 1.67.4 2.5.4 3.36 0 6.49-2.13 7.6-5.49Zm-5.4-9.15c1.77.59 3.21 1.83 4.05 3.5s.98 3.57.4 5.34a7.007 7.007 0 0 1-8.84 4.45 7.007 7.007 0 0 1-4.45-8.84 7.017 7.017 0 0 1 3.5-4.06 6.944 6.944 0 0 1 5.34-.39Zm-9.15 3.82-7-2.31-.31.95 7 2.31.31-.95Zm7.1 2.34-.3.96h.02l.28-.96Zm-7.1-2.34-7-2.31-.31.95 7 2.31.31-.95Zm7.1 2.34-.3.96h.02l.28-.96Zm11.27-9.03-.67-.75-5.49 4.89.67.75 5.49-4.89Zm-11.27 9.03-.3.96h.02l.28-.96Zm3.37 14.92-1.49-7.2-.98.2 1.49 7.2.98-.2Zm6.52-3.83-.3.96h.02l.28-.96Zm-9.89-11.09-.3.96h.02l.28-.96Zm13.59 4.49-6.45-2.13-.31.95 6.45 2.13.31-.95Zm.35-6.14-.21-.98-6.59 1.37.21.98 6.59-1.37Zm-4.04 12.23-4.48-5.02-.75.67 4.48 5.02.75-.67Zm272.86-53.91c.53 0 1.07-.13 1.47-.4.67-.4 1.2-1.07 1.47-1.86.27-.67.13-1.6-.27-2.26l-5.19-9.46c-.8-1.47-2.66-2-4.13-1.2-.67.4-1.2 1.07-1.47 1.86-.27.67-.13 1.6.27 2.26l5.19 9.46c.53 1.07 1.6 1.6 2.66 1.6Zm-5.19-14.11c.67 0 1.2.27 1.47.93l5.19 9.46c.27.4.27.8.13 1.33s-.4.8-.8 1.07c-.8.4-1.86.13-2.26-.67l-5.19-9.46c-.27-.4-.27-.93-.13-1.33.13-.53.4-.8.8-1.07.27-.13.53-.27.8-.27Zm-3.33 18.78c.53 0 1.07 0 1.47-.4.67-.4 1.2-1.07 1.47-1.86.27-.67.13-1.6-.27-2.26l-2-3.73c-.8-1.47-2.66-2-4.13-1.2-.67.4-1.2 1.2-1.47 1.86s-.13 1.6.27 2.26l2 3.73c.53 1.07 1.6 1.6 2.66 1.6Zm-2-8.39c.53 0 1.2.4 1.47.93l2 3.73c.27.4.27.93.13 1.33-.13.53-.4.8-.8 1.07-.8.4-1.86.13-2.26-.67l-2-3.73c-.27-.4-.27-.8-.13-1.33s.4-.8.8-1.07c.27-.13.53-.27.8-.27Zm18.78-.8c.53 0 1.07-.13 1.47-.4.67-.4 1.2-1.07 1.47-1.86.27-.67.13-1.6-.27-2.26l-8.92-16.12c-.8-1.47-2.66-2-4.13-1.2-.67.4-1.2 1.07-1.47 1.86-.27.67-.13 1.6.27 2.26l8.92 16.12c.53 1.07 1.6 1.6 2.66 1.6Zm-8.92-20.91c.67 0 1.2.4 1.47.93l8.92 16.12c.27.4.27.93.13 1.33-.13.53-.4.8-.8 1.07-.8.4-1.86.13-2.26-.67l-8.92-16.12c-.27-.4-.27-.93-.13-1.33.13-.53.4-.8.8-1.07.27-.13.53-.27.8-.27Zm107.18 25.41c-.12.52-.11 1.08.07 1.53.24.74.78 1.42 1.51 1.86.6.41 1.54.49 2.29.24l10.46-3c1.62-.46 2.56-2.17 2.1-3.79-.24-.74-.78-1.42-1.51-1.86-.6-.41-1.54-.49-2.29-.24l-10.46 3c-1.17.29-1.93 1.21-2.17 2.26Zm15.05-1.96c-.15.65-.53 1.12-1.24 1.23l-10.46 3c-.45.17-.85.08-1.34-.17s-.7-.57-.87-1.02c-.21-.87.29-1.86 1.16-2.08l10.46-3c.45-.17.98-.05 1.34.17.49.25.7.57.87 1.02.07.29.14.58.08.85Zm-17.73-7.46c-.12.52-.24 1.05.07 1.53.24.74.78 1.42 1.51 1.86.6.41 1.54.49 2.29.24l4.11-1.13c1.62-.46 2.56-2.17 2.1-3.79-.24-.74-.91-1.45-1.51-1.86s-1.54-.49-2.29-.24l-4.11 1.13c-1.17.29-1.93 1.21-2.17 2.26Zm8.7-.09c-.12.52-.66 1.09-1.24 1.23l-4.11 1.13c-.45.17-.98.05-1.34-.17-.49-.25-.7-.57-.87-1.02-.21-.87.29-1.86 1.16-2.08l4.11-1.13c.45-.17.85-.08 1.34.17s.7.57.87 1.02c.07.29.14.58.08.85Zm-3.41 18.64c-.12.52-.11 1.08.07 1.53.24.74.78 1.42 1.51 1.86.6.41 1.54.49 2.29.24l17.84-5.18c1.62-.46 2.56-2.17 2.1-3.79-.24-.74-.78-1.42-1.51-1.86-.6-.41-1.54-.49-2.29-.24l-17.84 5.18c-1.17.29-1.93 1.21-2.17 2.26Zm22.56-4.11c-.15.65-.66 1.09-1.24 1.23l-17.84 5.18c-.45.17-.98.05-1.34-.17-.49-.25-.7-.57-.87-1.02-.21-.87.29-1.86 1.16-2.08l17.84-5.18c.45-.17.98-.05 1.34.17.49.25.7.57.87 1.02.07.29.14.58.08.85Zm-74.98 27.16a.601.601 0 1 0-1.15-.35c-2.63 8.53-10.98 14.05-19.87 13.15-4.99-.51-9.48-2.93-12.65-6.81s-4.63-8.77-4.12-13.76c.91-8.91 8.02-15.98 16.91-16.81.33-.03.57-.32.54-.65a.602.602 0 0 0-.65-.54c-9.46.88-17.03 8.41-17.99 17.88a19.831 19.831 0 0 0 4.39 14.64c3.37 4.13 8.15 6.71 13.46 7.25.68.07 1.35.1 2.02.1 8.68 0 16.53-5.68 19.12-14.1Zm2.57-6.53c.58-.53.9-1.29.88-2.06-.2-9.15-6.57-16.97-15.49-19-.76-.18-1.56-.01-2.2.45-.64.46-1.06 1.18-1.14 1.96l-1.51 14.87c-.06.64 0 2.75 3.61 3.11l13.7 1.39c.09 0 .18.01.28.01.69 0 1.36-.26 1.87-.74Zm-14.88-19.9a18.698 18.698 0 0 1 14.56 17.86c0 .44-.17.85-.5 1.16s-.78.45-1.22.41l-13.7-1.39c-1.01-.1-2.67-.47-2.54-1.8l1.51-14.87a1.549 1.549 0 0 1 1.53-1.4c.11 0 .23.01.34.04Zm-52.58 15.86h-1 1Zm-39.73 13.14c.13-.12.19-.3.16-.47l-1.26-6.08a.496.496 0 0 0-.33-.37.487.487 0 0 0-.49.1l-4.63 4.13c-.13.12-.19.3-.16.47s.16.32.33.37l5.9 1.95a.46.46 0 0 0 .49-.1Zm-1.91-5.5.91 4.38-4.25-1.4 3.34-2.98Zm197.97-55.83 4.2-4.58c.12-.13.16-.32.11-.49a.493.493 0 0 0-.37-.34l-6.06-1.35c-.17-.04-.36.02-.48.15s-.16.32-.11.49l1.87 5.92c.05.17.19.3.37.34.04 0 .07.01.11.01.14 0 .27-.06.37-.16Zm2.88-4.61-3.03 3.3-1.35-4.27 4.37.97ZM950.78 120.86l6.11-1.12c.18-.03.32-.16.38-.32.06-.17.03-.36-.09-.49l-4.02-4.73a.499.499 0 0 0-.85.15l-2.09 5.85c-.06.17-.03.36.09.49.1.11.24.18.38.18h.09Zm5.08-1.94-4.41.8 1.51-4.22 2.9 3.41Zm-86.38-103.7 6.11-1.12c.18-.03.32-.16.38-.32.06-.17.03-.36-.09-.49l-4.02-4.73a.52.52 0 0 0-.47-.17c-.18.03-.32.16-.38.32l-2.09 5.85c-.06.17-.03.36.09.49.1.11.24.18.38.18h.09Zm5.08-1.95-4.41.8 1.51-4.22 2.9 3.41ZM987.2 66.85c1.12 0 2.13-.34 2.91-1.01.34-.22.34-.56.11-.78-.22-.34-.56-.34-.78-.11-1.46 1.23-3.69 1.01-4.92-.45-.56-.78-.9-1.68-.78-2.57s.56-1.79 1.23-2.35c.34-.22.34-.56.11-.78-.22-.34-.56-.34-.78-.11-1.01.78-1.57 1.9-1.68 3.13s.22 2.46 1.01 3.36c.9 1.12 2.24 1.68 3.58 1.68Zm89.41-23.23c1.12 0 2.13-.34 2.91-1.01.34-.22.34-.56.11-.78-.22-.34-.56-.34-.78-.11-1.46 1.23-3.69 1.01-4.92-.45-.56-.78-.9-1.68-.78-2.57s.56-1.79 1.23-2.35c.34-.22.34-.56.11-.78-.22-.34-.56-.34-.78-.11-1.01.78-1.57 1.9-1.68 3.13s.22 2.46 1.01 3.36c.9 1.12 2.24 1.68 3.58 1.68Zm-175.38 77.1c.08-1.12-.18-2.15-.79-2.98-.2-.35-.53-.38-.77-.17-.35.2-.38.53-.17.77 1.12 1.54.74 3.76-.8 4.88-.82.5-1.74.77-2.62.59s-1.75-.69-2.25-1.4c-.2-.35-.53-.38-.77-.17-.35.2-.38.53-.17.77.71 1.06 1.78 1.7 3 1.9s2.47-.04 3.42-.76c1.18-.81 1.84-2.11 1.93-3.45Zm159.74-10.62c-.44-1.03-1.15-1.82-2.07-2.28-.34-.22-.65-.09-.76.21-.22.34-.09.65.21.76 1.7.85 2.38 3 1.53 4.7-.5.82-1.19 1.48-2.06 1.73s-1.87.19-2.65-.21c-.34-.22-.65-.09-.76.21-.22.34-.09.65.21.76 1.12.62 2.37.69 3.54.31s2.17-1.18 2.69-2.25c.68-1.26.66-2.72.13-3.95Zm-231.59 3.46c1.12 0 2.13-.34 2.91-1.01.34-.22.34-.56.11-.78-.22-.34-.56-.34-.78-.11-1.46 1.23-3.69 1.01-4.92-.45-.56-.78-.9-1.68-.78-2.57s.56-1.79 1.23-2.35c.34-.22.34-.56.11-.78-.22-.34-.56-.34-.78-.11-1.01.78-1.57 1.9-1.68 3.13s.22 2.46 1.01 3.36c.9 1.12 2.24 1.68 3.58 1.68Zm25.98-80.88a.5.5 0 1 0-.44-.9c-3.83 1.84-6.86 2.19-9.02 1.03-1.78-.95-2.53-2.69-3.32-4.53-.84-1.94-1.71-3.94-3.85-4.91-2.51-1.14-5.72-.65-9.55 1.45-.24.13-.33.44-.2.68.13.24.44.33.68.2 3.54-1.94 6.45-2.41 8.66-1.42 1.8.81 2.55 2.56 3.35 4.4.83 1.92 1.69 3.9 3.77 5.01.97.52 2.09.78 3.34.78 1.89 0 4.1-.6 6.59-1.79Zm-5.33 10.61c.13-.25.03-.55-.22-.67l-25.49-13.08a1.37 1.37 0 0 1-.59-1.84l8.04-15.67c.13-.25.03-.55-.22-.67a.49.49 0 0 0-.67.22l-8.04 15.67c-.29.56-.34 1.2-.15 1.8.19.6.61 1.09 1.17 1.38l25.49 13.08c.07.04.15.05.23.05.18 0 .36-.1.45-.27Zm248.12 60.56c.05-2.57.71-4.32 1.94-5.21.99-.71 2.18-.57 3.45-.43 1.32.15 2.81.32 4.17-.53 1.59-.99 2.51-3.03 2.73-6.06a.504.504 0 0 0-.46-.54.51.51 0 0 0-.54.46c-.2 2.7-.96 4.48-2.26 5.29-1.06.66-2.26.53-3.52.38-1.4-.16-2.84-.32-4.14.61-1.5 1.08-2.29 3.1-2.36 6 0 .28.21.5.49.51h.01c.27 0 .49-.22.5-.49Zm.7 4.94 15.66-10.13a.5.5 0 0 0 .15-.69.5.5 0 0 0-.69-.15l-15.66 10.13a.73.73 0 0 1-.54.1.692.692 0 0 1-.45-.31l-6.23-9.63a.5.5 0 0 0-.69-.15.5.5 0 0 0-.15.69l6.23 9.63a1.74 1.74 0 0 0 1.44.79c.33 0 .65-.09.93-.28Zm-91.45-4.72c0-7.76-6.31-14.07-14.07-14.07s-14.07 6.31-14.07 14.07 6.31 14.07 14.07 14.07 14.07-6.31 14.07-14.07Zm-1 0c0 7.2-5.86 13.07-13.07 13.07s-13.07-5.86-13.07-13.07S986.12 91 993.33 91s13.07 5.86 13.07 13.07Zm-3.42 0c0-5.32-4.33-9.64-9.64-9.64s-9.65 4.33-9.65 9.64 4.33 9.64 9.65 9.64 9.64-4.33 9.64-9.64Zm-1 0c0 4.77-3.88 8.64-8.64 8.64s-8.65-3.88-8.65-8.64 3.88-8.64 8.65-8.64 8.64 3.88 8.64 8.64Zm-8.15 0h-1 1Zm0 0h-1 1Zm0 0h-1 1Zm-6.78 11.74h-1 1Zm6.78-11.74h-1 1Zm19.58 19.76a5.426 5.426 0 0 0 0-7.66l-7.21-7.2-.71.71 7.21 7.2a4.43 4.43 0 0 1 0 6.25c-.83.83-1.95 1.29-3.14 1.29s-2.29-.46-3.13-1.29l-7.09-7.09-.71.71 7.09 7.09c1.02 1.02 2.38 1.58 3.83 1.58s2.82-.56 3.84-1.58Zm23.54-34.32 10.03-8.73c.43-.39.99-.57 1.58-.54.58.04 1.11.31 1.48.76l3.7 4.5c.61.74 1.49 1.12 2.45 1.13a3.15 3.15 0 0 0 2.42-1.21l8.88-11.53c.17-.22.13-.53-.09-.7a.496.496 0 0 0-.7.09l-8.88 11.53c-.4.51-.99.81-1.64.82-.62.03-1.25-.27-1.67-.77l-3.7-4.5a3.103 3.103 0 0 0-2.18-1.13c-.87-.07-1.68.22-2.31.79l-10.02 8.73c-.21.18-.23.5-.05.71.1.11.24.17.38.17.12 0 .23-.04.33-.12Zm30.97-9.79c.28-.01.49-.25.48-.52l-.27-6.13c0-.13-.06-.26-.16-.35a.474.474 0 0 0-.36-.13l-6.96.3c-.28.01-.49.25-.48.52.01.28.24.46.52.48l6.46-.28.25 5.63c.01.27.23.48.5.48h.02Zm-86.59-58.19c0-6.07-4.94-11.01-11.02-11.01s-11.02 4.94-11.02 11.01 4.94 11.01 11.02 11.01 11.02-4.94 11.02-11.01Zm-1 0c0 5.52-4.49 10.01-10.02 10.01s-10.02-4.49-10.02-10.01 4.49-10.01 10.02-10.01 10.02 4.49 10.02 10.01Zm11.52 0c0-6.07-4.94-11.01-11.02-11.01s-11.02 4.94-11.02 11.01 4.94 11.01 11.02 11.01 11.02-4.94 11.02-11.01Zm-1 0c0 5.52-4.49 10.01-10.02 10.01s-10.02-4.49-10.02-10.01 4.49-10.01 10.02-10.01 10.02 4.49 10.02 10.01Zm-4.12-10.51c0-6.07-4.94-11.02-11.02-11.02s-11.02 4.94-11.02 11.02 4.94 11.01 11.02 11.01 11.02-4.94 11.02-11.01Zm-1 0c0 5.52-4.49 10.01-10.02 10.01s-10.02-4.49-10.02-10.01S970.18 1 975.71 1s10.02 4.49 10.02 10.02Zm-7.63 3.42-.71-.71-6.26 6.26.71.71 6.26-6.26Zm1.77 2.35-.71-.71-5.09 5.09.71.71 5.09-5.09Zm-72.46 71.75c0-8.47-6.89-15.36-15.36-15.36s-15.36 6.89-15.36 15.36 6.89 15.36 15.36 15.36 15.36-6.89 15.36-15.36Zm-1 0c0 7.92-6.44 14.36-14.36 14.36s-14.36-6.44-14.36-14.36 6.44-14.36 14.36-14.36 14.36 6.44 14.36 14.36Zm-6.36 0c0-4.41-3.59-8-8-8s-8 3.59-8 8 3.59 8 8 8 8-3.59 8-8Zm-1 0c0 3.86-3.14 7-7 7s-7-3.14-7-7 3.14-7 7-7 7 3.14 7 7Zm-6.49-14.86h-1v7.37h1v-7.37Zm0 14.85h-1v.02l1-.02Zm0-14.85h-1v7.37h1v-7.37Zm0 14.85h-1v.02l1-.02Zm12.61 7-6.37-3.67-.5.87 6.37 3.67.5-.87Zm-12.61-7h-1v.02l1-.02Zm-6.75 4.19-.5-.87-6.37 3.67.5.87 6.37-3.67Zm-.68 8.67h-1v.02l1-.02Zm7.43-12.86h-1v.02l1-.02Zm-.01 7.5h-1v6.79h1v-6.79Zm6.81 4.71-3.37-5.83-.87.5 3.37 5.83.87-.5Zm-10.37-5.33-.87-.5-3.37 5.83.87.5 3.37-5.83Zm285.1-54.9c.28.45.68.83 1.12 1.03.69.35 1.54.45 2.36.25.71-.13 1.42-.74 1.78-1.43l5.25-9.43c.82-1.46.28-3.32-1.18-4.13-.69-.35-1.54-.45-2.36-.25-.71.13-1.42.74-1.78 1.43l-5.25 9.43c-.62 1.02-.5 2.2.06 3.11Zm9.2-11.9c.35.56.41 1.16-.01 1.74l-5.25 9.43c-.2.44-.54.65-1.06.82s-.89.09-1.33-.11c-.76-.46-1.1-1.51-.64-2.27l5.25-9.43c.2-.44.65-.72 1.06-.82.52-.17.89-.09 1.33.11.25.15.51.31.65.54Zm-17.68 7.16c.28.45.57.9 1.12 1.03.69.35 1.54.45 2.36.25.71-.13 1.42-.74 1.78-1.43l2.1-3.67c.82-1.46.28-3.32-1.18-4.13-.69-.35-1.65-.38-2.36-.25s-1.42.74-1.78 1.43l-2.1 3.67c-.62 1.02-.5 2.2.06 3.11Zm6.05-6.15c.28.45.3 1.23-.01 1.74l-2.1 3.67c-.2.44-.65.72-1.06.82-.52.17-.89.09-1.33-.11-.76-.46-1.1-1.51-.64-2.27l2.1-3.67c.2-.44.54-.65 1.06-.82s.89-.09 1.33.11c.25.15.51.31.65.54Zm10.66 15.48c.28.45.68.83 1.12 1.03.69.35 1.54.45 2.36.25.71-.13 1.42-.74 1.78-1.43l8.9-16.13c.82-1.46.28-3.32-1.18-4.13-.69-.35-1.54-.45-2.36-.25-.71.13-1.42.74-1.78 1.43l-8.9 16.13c-.62 1.02-.5 2.2.06 3.11Zm12.96-18.67c.35.56.3 1.23-.01 1.74l-8.9 16.13c-.2.44-.65.72-1.06.82-.52.17-.89.09-1.33-.11-.76-.46-1.1-1.51-.64-2.27l8.9-16.13c.2-.44.65-.72 1.06-.82.52-.17.89-.09 1.33.11.25.15.51.31.65.54Zm100.71 9.94c-.49.22-.92.56-1.18.97-.45.64-.66 1.48-.57 2.32.03.72.54 1.52 1.18 1.97l8.69 6.54c1.34 1.02 3.28.73 4.29-.61.45-.64.66-1.48.57-2.32-.03-.72-.54-1.52-1.18-1.97l-8.69-6.54c-.93-.76-2.13-.81-3.11-.37Zm10.62 10.83c-.61.28-1.21.25-1.73-.25l-8.69-6.54c-.41-.26-.58-.62-.67-1.17-.1-.54.04-.9.29-1.31.57-.7 1.66-.89 2.36-.33l8.69 6.54c.41.26.63.75.67 1.17.1.54-.04.9-.29 1.31-.19.23-.38.47-.62.58Zm-4.71-18.65c-.49.22-.98.44-1.18.97-.45.64-.66 1.48-.57 2.32.03.72.54 1.52 1.18 1.97l3.38 2.6c1.34 1.02 3.28.73 4.29-.61.45-.64.61-1.6.57-2.32s-.54-1.52-1.18-1.97l-3.38-2.6c-.93-.76-2.13-.81-3.11-.37Zm5.31 6.89c-.49.22-1.27.13-1.73-.25l-3.38-2.6c-.41-.26-.63-.75-.67-1.17-.1-.54.04-.9.29-1.31.57-.7 1.66-.89 2.36-.33l3.38 2.6c.41.26.58.62.67 1.17s-.04.9-.29 1.31c-.19.23-.38.47-.62.58Zm-16.94 8.51c-.49.22-.92.56-1.18.97-.45.64-.66 1.48-.57 2.32.03.72.54 1.52 1.18 1.97l14.88 11.12c1.34 1.02 3.28.73 4.29-.61.45-.64.66-1.48.57-2.32-.03-.72-.54-1.52-1.18-1.97l-14.88-11.12c-.93-.76-2.13-.81-3.11-.37Zm16.87 15.53c-.61.28-1.27.13-1.73-.25l-14.88-11.12c-.41-.26-.63-.75-.67-1.17-.1-.54.04-.9.29-1.31.57-.7 1.66-.89 2.36-.33l14.88 11.12c.41.26.63.75.67 1.17.1.54-.04.9-.29 1.31-.19.23-.38.47-.62.58Zm-64.8 18.62c3.2-8.95-.39-18.99-8.53-23.88a.594.594 0 0 0-.82.21c-.17.28-.08.65.21.82 7.65 4.59 11.02 14.03 8.01 22.44-3.48 9.75-14.24 14.85-23.99 11.36-8.43-3.01-13.6-11.61-12.28-20.44a.599.599 0 0 0-.5-.68.606.606 0 0 0-.68.5c-1.4 9.4 4.09 18.54 13.06 21.75 2.21.79 4.47 1.17 6.7 1.16 8.2 0 15.91-5.1 18.82-13.25Zm-20.36-10.22c.69-.47 1.25-1.3 1.67-2.47l4.63-12.97c.26-.74.2-1.57-.19-2.26a2.723 2.723 0 0 0-1.79-1.35c-8.93-2-18.05 2.32-22.16 10.5l.54.27-.54-.27c-.35.7-.38 1.51-.09 2.24.29.74.89 1.31 1.63 1.58l14.08 5.03c.29.1.57.15.85.15.48 0 .94-.15 1.37-.44Zm4.05-17.89c.43.1.79.37 1 .76.22.39.26.86.11 1.28L1222.51 65c-.33.91-.75 1.57-1.21 1.89-.36.25-.73.29-1.14.15l-14.08-5.03c-.42-.15-.76-.47-.92-.89a1.5 1.5 0 0 1 .05-1.26 18.71 18.71 0 0 1 16.72-10.32c1.36 0 2.74.15 4.11.46Zm-50.24 16.32h-1 1Zm-39.73 13.14c.13-.12.19-.3.16-.47l-1.26-6.08a.496.496 0 0 0-.33-.37.487.487 0 0 0-.49.1l-4.63 4.13c-.13.12-.19.3-.16.47s.16.32.33.37l5.9 1.95a.46.46 0 0 0 .49-.1Zm-1.91-5.5.91 4.38-4.25-1.4 3.34-2.98Zm197.97-55.83 4.2-4.58c.12-.13.16-.32.11-.49a.493.493 0 0 0-.37-.34l-6.06-1.35c-.17-.04-.36.02-.48.15s-.16.32-.11.49l1.87 5.92c.05.17.19.3.37.34.04 0 .07.01.11.01.14 0 .27-.06.37-.16Zm2.88-4.61-3.03 3.3-1.35-4.27 4.37.97Zm-107.02 107.35 6.11-1.12c.18-.03.32-.16.38-.32.06-.17.03-.36-.09-.49l-4.02-4.73a.499.499 0 0 0-.85.15l-2.09 5.85c-.06.17-.03.36.09.49.1.11.24.18.38.18h.09Zm5.08-1.94-4.41.8 1.51-4.22 2.9 3.41Zm153.41-7.79 6.11-1.12c.18-.03.32-.16.38-.32.06-.17.03-.36-.09-.49l-4.02-4.73a.499.499 0 0 0-.85.15l-2.09 5.85c-.06.17-.03.36.09.49.1.11.24.18.38.18h.09Zm5.08-1.95-4.41.8 1.51-4.22 2.9 3.41ZM1264.4 66.85c1.12 0 2.13-.34 2.91-1.01.34-.22.34-.56.11-.78-.22-.34-.56-.34-.78-.11-1.46 1.23-3.69 1.01-4.92-.45-.56-.78-.9-1.68-.78-2.57s.56-1.79 1.23-2.35c.34-.22.34-.56.11-.78-.22-.34-.56-.34-.78-.11-1.01.78-1.57 1.9-1.68 3.13-.11 1.23.22 2.46 1.01 3.36.9 1.12 2.24 1.68 3.58 1.68Zm89.41-23.23c1.12 0 2.13-.34 2.91-1.01.34-.22.34-.56.11-.78-.22-.34-.56-.34-.78-.11-1.46 1.23-3.69 1.01-4.92-.45-.56-.78-.9-1.68-.78-2.57s.56-1.79 1.23-2.35c.34-.22.34-.56.11-.78-.22-.34-.56-.34-.78-.11-1.01.78-1.57 1.9-1.68 3.13-.11 1.23.22 2.46 1.01 3.36.9 1.12 2.24 1.68 3.58 1.68Zm-175.38 77.1c.08-1.12-.18-2.15-.79-2.98-.2-.35-.53-.38-.77-.17-.35.2-.38.53-.17.77 1.12 1.54.74 3.76-.8 4.88-.82.5-1.74.77-2.62.59s-1.75-.69-2.25-1.4c-.2-.35-.53-.38-.77-.17-.35.2-.38.53-.17.77.71 1.06 1.78 1.7 3 1.9s2.47-.04 3.42-.76c1.18-.81 1.84-2.11 1.93-3.45Zm159.74-10.62c-.44-1.03-1.15-1.82-2.07-2.28-.34-.22-.65-.09-.76.21-.22.34-.09.65.21.76 1.7.85 2.38 3 1.53 4.7-.5.82-1.19 1.48-2.06 1.73s-1.87.19-2.65-.21c-.34-.22-.65-.09-.76.21-.22.34-.09.65.21.76 1.12.62 2.37.69 3.54.31s2.17-1.18 2.69-2.25c.68-1.26.66-2.72.13-3.95Zm-205.61-77.42a.5.5 0 1 0-.44-.9c-3.83 1.84-6.86 2.19-9.02 1.03-1.78-.95-2.53-2.69-3.33-4.53-.84-1.94-1.71-3.94-3.85-4.91-2.51-1.14-5.72-.65-9.55 1.45-.24.13-.33.44-.2.68.13.24.44.33.68.2 3.54-1.94 6.45-2.42 8.66-1.42 1.8.81 2.55 2.56 3.35 4.4.83 1.92 1.69 3.9 3.77 5.01.97.52 2.09.78 3.34.78 1.89 0 4.1-.6 6.59-1.79Zm-5.33 10.61c.13-.25.03-.55-.22-.67l-25.49-13.08a1.37 1.37 0 0 1-.59-1.84l8.04-15.67c.13-.25.03-.55-.22-.67a.488.488 0 0 0-.67.22l-8.04 15.67a2.374 2.374 0 0 0 1.02 3.18l25.49 13.08c.07.04.15.05.23.05.18 0 .36-.1.45-.27Zm136.4-26.36c0-7.75-6.31-14.06-14.07-14.06s-14.07 6.31-14.07 14.06S1241.8 31 1249.56 31s14.07-6.31 14.07-14.07Zm-1 0c0 7.2-5.86 13.07-13.07 13.07s-13.07-5.86-13.07-13.07 5.86-13.06 13.07-13.06 13.07 5.86 13.07 13.06Zm-3.42 0c0-5.32-4.33-9.64-9.65-9.64s-9.65 4.33-9.65 9.64 4.33 9.64 9.65 9.64 9.65-4.33 9.65-9.64Zm-1 0c0 4.77-3.88 8.64-8.65 8.64s-8.65-3.88-8.65-8.64 3.88-8.64 8.65-8.64 8.65 3.88 8.65 8.64Zm-8.14-.01h-1 1Zm0 0h-1 1Zm0 0h-1 1Zm-6.79 11.75h-1v.02l1-.02Zm6.79-11.75h-1 1Zm19.58 19.77c1.02-1.02 1.59-2.38 1.59-3.83s-.56-2.81-1.59-3.83l-7.21-7.2-.71.71 7.21 7.2c.83.83 1.29 1.94 1.29 3.12s-.46 2.29-1.29 3.12c-.83.83-1.95 1.29-3.14 1.29s-2.29-.46-3.12-1.29l-7.09-7.09-.71.71 7.09 7.09c1.02 1.02 2.38 1.58 3.83 1.58s2.82-.56 3.85-1.58Zm72.03 48.11 10.03-8.73c.43-.39.99-.58 1.58-.54.58.04 1.11.31 1.48.76l3.7 4.5c.61.74 1.54 1.18 2.45 1.13a3.12 3.12 0 0 0 2.42-1.21l8.88-11.53c.17-.22.13-.53-.09-.7a.496.496 0 0 0-.7.09l-8.88 11.53c-.39.51-.99.81-1.64.82h-.03c-.63 0-1.23-.28-1.63-.77l-3.7-4.5a3.103 3.103 0 0 0-2.18-1.13c-.87-.07-1.68.22-2.31.79l-10.02 8.73c-.21.18-.23.5-.05.71.1.11.24.17.38.17.12 0 .23-.04.33-.12Zm30.97-9.79c.28-.01.49-.25.48-.52l-.27-6.13a.501.501 0 0 0-.52-.48l-6.96.3c-.28.01-.49.25-.48.52.01.27.24.48.52.48l6.46-.28.25 5.63c.01.27.23.48.5.48h.02Zm-87.37 31.24c0-6.07-4.94-11.01-11.02-11.01s-11.02 4.94-11.02 11.01 4.94 11.02 11.02 11.02 11.02-4.94 11.02-11.02Zm-1 0c0 5.52-4.49 10.02-10.02 10.02s-10.02-4.49-10.02-10.02 4.49-10.01 10.02-10.01 10.02 4.49 10.02 10.01Zm11.51 0c0-6.07-4.94-11.01-11.02-11.01s-11.02 4.94-11.02 11.01 4.94 11.02 11.02 11.02 11.02-4.94 11.02-11.02Zm-1 0c0 5.52-4.49 10.02-10.02 10.02s-10.02-4.49-10.02-10.02 4.49-10.01 10.02-10.01 10.02 4.49 10.02 10.01Zm-4.12-10.52c0-6.07-4.94-11.02-11.02-11.02s-11.02 4.94-11.02 11.02 4.94 11.01 11.02 11.01 11.02-4.94 11.02-11.01Zm-1 0c0 5.52-4.49 10.01-10.02 10.01s-10.02-4.49-10.02-10.01 4.49-10.02 10.02-10.02 10.02 4.49 10.02 10.02Zm-7.62 3.43-.71-.71-6.26 6.26.71.71 6.26-6.26Zm1.77 2.35-.71-.71-5.09 5.09.71.71 5.09-5.09Zm-99.21-12.97c0-8.47-6.89-15.36-15.36-15.36s-15.36 6.89-15.36 15.36 6.89 15.36 15.36 15.36 15.36-6.89 15.36-15.36Zm-1 0c0 7.92-6.44 14.36-14.36 14.36s-14.36-6.44-14.36-14.36 6.44-14.36 14.36-14.36 14.36 6.44 14.36 14.36Zm-6.36 0c0-4.41-3.59-8-8-8s-8 3.59-8 8 3.59 8 8 8 8-3.59 8-8Zm-1 0c0 3.86-3.14 7-7 7s-7-3.14-7-7 3.14-7 7-7 7 3.14 7 7Zm-6.49-14.86h-1v7.37h1v-7.37Zm0 14.85h-1v.02l1-.02Zm0-14.85h-1v7.37h1v-7.37Zm0 14.85h-1v.02l1-.02Zm12.61 7-6.37-3.67-.5.87 6.37 3.67.5-.87Zm-12.61-7h-1v.02l1-.02Zm-6.75 4.19-.5-.87-6.37 3.67.5.87 6.37-3.67Zm-.69 8.67h-1v.02l1-.02Zm7.44-12.86h-1v.02l1-.02Zm-.01 7.5h-1v6.79h1v-6.79Zm6.8 4.71-3.37-5.83-.87.5 3.37 5.83.87-.5Zm-10.37-5.33-.87-.5-3.37 5.83.87.5 3.37-5.83Zm294.99-50.69c.53 0 1.07-.13 1.47-.4.67-.4 1.2-1.07 1.47-1.86.27-.67.13-1.6-.27-2.26l-5.19-9.46c-.8-1.47-2.66-2-4.13-1.2-.67.4-1.2 1.07-1.47 1.86-.27.67-.13 1.6.27 2.26l5.19 9.46c.53 1.07 1.6 1.6 2.66 1.6Zm-5.19-14.11c.67 0 1.2.27 1.47.93l5.19 9.46c.27.4.27.8.13 1.33s-.4.8-.8 1.07c-.8.4-1.86.13-2.26-.67l-5.19-9.46c-.27-.4-.27-.93-.13-1.33.13-.53.4-.8.8-1.07.27-.13.53-.27.8-.27Zm-3.33 18.78c.53 0 1.07 0 1.47-.4.67-.4 1.2-1.07 1.47-1.86.27-.67.13-1.6-.27-2.26l-2-3.73c-.8-1.47-2.66-2-4.13-1.2-.67.4-1.2 1.2-1.47 1.86s-.13 1.6.27 2.26l2 3.73c.53 1.07 1.6 1.6 2.66 1.6Zm-2-8.39c.53 0 1.2.4 1.47.93l2 3.73c.27.4.27.93.13 1.33-.13.53-.4.8-.8 1.07-.8.4-1.86.13-2.26-.67l-2-3.73c-.27-.4-.27-.8-.13-1.33s.4-.8.8-1.07c.27-.13.53-.27.8-.27Zm18.78-.8c.53 0 1.07-.13 1.47-.4.67-.4 1.2-1.07 1.47-1.86.27-.67.13-1.6-.27-2.26l-8.92-16.12c-.8-1.47-2.66-2-4.13-1.2-.67.4-1.2 1.07-1.47 1.86-.27.67-.13 1.6.27 2.26l8.92 16.12c.53 1.07 1.6 1.6 2.66 1.6Zm-8.92-20.91c.67 0 1.2.4 1.47.93l8.92 16.12c.27.4.27.93.13 1.33-.13.53-.4.8-.8 1.07-.8.4-1.86.13-2.26-.67l-8.92-16.12c-.27-.4-.27-.93-.13-1.33.13-.53.4-.8.8-1.07.27-.13.53-.27.8-.27Zm59.74-.27c-.12.52-.11 1.08.07 1.53.24.74.78 1.42 1.51 1.86.6.41 1.54.49 2.29.24l10.46-3c1.62-.46 2.56-2.17 2.1-3.79-.24-.74-.78-1.42-1.51-1.86-.6-.41-1.54-.49-2.29-.24l-10.46 3c-1.17.29-1.93 1.21-2.17 2.26Zm15.05-1.96c-.15.65-.53 1.12-1.24 1.23l-10.46 3c-.45.17-.85.08-1.34-.17s-.7-.57-.87-1.02c-.21-.87.29-1.86 1.16-2.08l10.46-3c.45-.17.98-.05 1.34.17.49.25.7.57.87 1.02.07.29.14.58.08.85Zm-17.73-7.47c-.12.52-.24 1.05.07 1.53.24.74.78 1.42 1.51 1.86.6.41 1.54.49 2.29.24l4.11-1.13c1.62-.46 2.56-2.17 2.1-3.79-.24-.74-.91-1.45-1.51-1.86s-1.54-.49-2.29-.24l-4.11 1.13c-1.17.29-1.93 1.21-2.17 2.26Zm8.7-.09c-.12.52-.66 1.09-1.24 1.23l-4.11 1.13c-.45.17-.98.05-1.34-.17-.49-.25-.7-.57-.87-1.02-.21-.87.29-1.86 1.16-2.08l4.11-1.13c.45-.17.85-.08 1.34.17s.7.57.87 1.02c.07.29.14.58.08.85Zm-3.41 18.65c-.12.52-.11 1.08.07 1.53.24.74.78 1.42 1.51 1.86.6.41 1.54.49 2.29.24l17.84-5.18c1.62-.46 2.56-2.17 2.1-3.79-.24-.74-.78-1.42-1.51-1.86-.6-.41-1.54-.49-2.29-.24l-17.84 5.18c-1.17.29-1.93 1.21-2.17 2.26Zm22.56-4.11c-.15.65-.66 1.09-1.24 1.23l-17.84 5.18c-.45.17-.98.05-1.34-.17-.49-.25-.7-.57-.87-1.02-.21-.87.29-1.86 1.16-2.08l17.84-5.18c.45-.17.98-.05 1.34.17.49.25.7.57.87 1.02.07.29.14.58.08.85Zm-27.54 52.84a.601.601 0 1 0-1.15-.35c-2.63 8.53-10.98 14.05-19.87 13.15-4.99-.51-9.48-2.93-12.65-6.81-3.17-3.88-4.63-8.77-4.12-13.76.91-8.91 8.02-15.98 16.91-16.81.33-.03.57-.32.54-.65a.602.602 0 0 0-.65-.54c-9.46.88-17.03 8.41-17.99 17.88a19.831 19.831 0 0 0 4.39 14.64c3.37 4.13 8.15 6.71 13.46 7.25.68.07 1.35.1 2.02.1 8.68 0 16.53-5.68 19.12-14.1Zm2.57-6.53c.58-.53.9-1.29.88-2.06-.2-9.15-6.57-16.97-15.5-19-.76-.18-1.56-.01-2.2.45-.64.46-1.06 1.18-1.14 1.96l-1.51 14.87c-.08.82.2 1.54.81 2.09.62.55 1.56.9 2.8 1.03l13.7 1.39c.09 0 .18.01.28.01.69 0 1.36-.26 1.87-.73Zm-14.89-19.9a18.698 18.698 0 0 1 14.56 17.86c0 .44-.17.85-.5 1.16-.33.3-.78.45-1.22.41l-13.7-1.39c-.96-.1-1.7-.35-2.12-.73-.32-.29-.46-.64-.42-1.07l1.51-14.87a1.549 1.549 0 0 1 1.53-1.4c.11 0 .23.01.34.04Zm-52.57 15.86h-1 1Zm-39.73 13.14c.13-.12.19-.3.16-.47l-1.26-6.08a.496.496 0 0 0-.33-.37.487.487 0 0 0-.49.1l-4.63 4.13c-.13.12-.19.3-.16.47.04.17.16.32.33.37l5.9 1.95a.46.46 0 0 0 .49-.1Zm-1.91-5.5.91 4.38-4.25-1.4 3.34-2.98Zm197.97-55.83 4.2-4.58c.12-.13.16-.32.11-.49a.493.493 0 0 0-.37-.34l-6.06-1.35c-.17-.04-.36.02-.48.15s-.16.32-.11.49l1.87 5.92c.05.17.19.3.37.34.04 0 .07.01.11.01.14 0 .27-.06.37-.16Zm2.88-4.61-3.03 3.3-1.35-4.27 4.37.97Zm-107.02 107.35 6.11-1.12c.18-.03.32-.16.38-.32.06-.17.03-.36-.09-.49l-4.02-4.73a.499.499 0 0 0-.85.15l-2.09 5.85c-.06.17-.03.36.09.49.1.11.24.18.38.18h.09Zm5.08-1.94-4.41.8 1.51-4.22 2.9 3.41Zm-195.57-34.15 6.11-1.12c.18-.03.32-.16.38-.32.06-.17.03-.36-.09-.49l-4.02-4.73a.499.499 0 0 0-.85.15l-2.09 5.85c-.06.17-.03.36.09.49.1.11.24.18.38.18h.09Zm5.07-1.94-4.41.8 1.51-4.22 2.9 3.41Zm221.84-15.98c1.12 0 2.13-.34 2.91-1.01.34-.22.34-.56.11-.78-.22-.34-.56-.34-.78-.11-1.46 1.23-3.69 1.01-4.92-.45-.56-.78-.9-1.68-.78-2.57s.56-1.79 1.23-2.35c.34-.22.34-.56.11-.78-.22-.34-.56-.34-.78-.11-1.01.78-1.57 1.9-1.68 3.13s.22 2.46 1.01 3.36c.9 1.12 2.24 1.68 3.58 1.68Zm89.41-23.23c1.12 0 2.13-.34 2.91-1.01.34-.22.34-.56.11-.78-.22-.34-.56-.34-.78-.11-1.46 1.23-3.69 1.01-4.92-.45-.56-.78-.9-1.68-.78-2.57s.56-1.79 1.23-2.35c.34-.22.34-.56.11-.78-.22-.34-.56-.34-.78-.11-1.01.78-1.57 1.9-1.68 3.13s.22 2.46 1.01 3.36c.9 1.12 2.24 1.68 3.58 1.68Zm-175.38 77.1c.08-1.12-.18-2.15-.79-2.98-.2-.35-.53-.38-.77-.17-.35.2-.38.53-.17.77 1.12 1.54.74 3.76-.8 4.88-.82.5-1.74.77-2.62.59s-1.75-.69-2.25-1.4c-.2-.35-.53-.38-.77-.17-.35.2-.38.53-.17.77.71 1.06 1.78 1.7 3 1.9s2.47-.04 3.42-.76c1.18-.81 1.84-2.11 1.93-3.45Zm159.74-10.62c-.44-1.03-1.15-1.82-2.07-2.28-.34-.22-.65-.09-.76.21-.22.34-.09.65.21.76 1.7.85 2.38 3 1.53 4.7-.5.82-1.19 1.48-2.06 1.73s-1.87.19-2.65-.21c-.34-.22-.65-.09-.76.21-.22.34-.09.65.21.76 1.12.62 2.37.69 3.54.31s2.17-1.18 2.69-2.25c.68-1.26.66-2.72.13-3.95Zm-182.31-98.15c1.12 0 2.13-.34 2.91-1.01.34-.22.34-.56.11-.78-.22-.34-.56-.34-.78-.11-1.46 1.23-3.69 1.01-4.92-.45-.56-.78-.9-1.68-.78-2.57s.56-1.79 1.23-2.35c.34-.22.34-.56.11-.78-.22-.34-.56-.34-.78-.11-1.01.78-1.57 1.9-1.68 3.13-.11 1.23.22 2.46 1.01 3.36.9 1.12 2.24 1.68 3.58 1.68Zm-23.3 20.73a.5.5 0 1 0-.44-.9c-3.83 1.84-6.86 2.19-9.02 1.03-1.78-.95-2.53-2.69-3.33-4.53-.84-1.94-1.71-3.94-3.85-4.91-2.51-1.14-5.72-.65-9.55 1.45-.24.13-.33.44-.2.68.13.24.44.33.68.2 3.54-1.94 6.45-2.41 8.66-1.42 1.8.81 2.55 2.56 3.35 4.4.83 1.92 1.69 3.9 3.77 5.01.97.52 2.09.78 3.34.78 1.89 0 4.1-.6 6.59-1.79Zm-5.33 10.61c.13-.25.03-.55-.22-.67l-25.49-13.08a1.37 1.37 0 0 1-.59-1.84l8.04-15.67c.13-.25.03-.55-.22-.67a.49.49 0 0 0-.67.22l-8.04 15.67a2.374 2.374 0 0 0 1.02 3.18l25.49 13.08c.07.04.15.05.23.05.18 0 .36-.1.45-.27Zm157.37 60.78c0-7.76-6.31-14.07-14.07-14.07s-14.07 6.31-14.07 14.07 6.31 14.07 14.07 14.07 14.07-6.31 14.07-14.07Zm-1 0c0 7.2-5.86 13.07-13.07 13.07s-13.07-5.86-13.07-13.07S1540.52 91 1547.73 91s13.07 5.86 13.07 13.07Zm-3.43 0c0-5.32-4.33-9.64-9.65-9.64s-9.65 4.33-9.65 9.64 4.33 9.64 9.65 9.64 9.65-4.33 9.65-9.64Zm-1 0c0 4.77-3.88 8.64-8.65 8.64s-8.65-3.88-8.65-8.64 3.88-8.64 8.65-8.64 8.65 3.88 8.65 8.64Zm-8.14 0h-1 1Zm0 0h-1 1Zm0 0h-1 1Zm-6.78 11.74h-1 1Zm6.78-11.74h-1 1Zm19.58 19.76a5.426 5.426 0 0 0 0-7.66l-7.21-7.2-.71.71 7.21 7.2a4.43 4.43 0 0 1 0 6.25c-.83.83-1.95 1.29-3.14 1.29s-2.29-.46-3.12-1.29l-7.09-7.09-.71.71 7.09 7.09c1.02 1.02 2.38 1.58 3.83 1.58s2.83-.56 3.85-1.58Zm23.54-34.32 10.03-8.73c.43-.39.99-.58 1.57-.54.58.04 1.11.31 1.48.76l3.7 4.5c.61.74 1.5 1.12 2.45 1.13a3.15 3.15 0 0 0 2.42-1.21l8.88-11.53c.17-.22.13-.53-.09-.7a.496.496 0 0 0-.7.09l-8.88 11.53c-.39.51-.99.81-1.64.82h-.03c-.63 0-1.23-.28-1.63-.77l-3.7-4.5a3.066 3.066 0 0 0-2.18-1.13c-.87-.07-1.68.22-2.31.79l-10.02 8.73c-.21.18-.23.5-.05.71.1.11.24.17.38.17.12 0 .23-.04.33-.12Zm30.97-9.79c.28-.01.49-.25.48-.52l-.27-6.13c-.01-.28-.24-.48-.52-.48l-6.96.3c-.28.01-.49.25-.48.52.01.28.26.46.52.48l6.46-.28.25 5.63c.01.27.23.48.5.48h.02Zm-37.01-25.99c0-6.07-4.94-11.02-11.02-11.02s-11.02 4.94-11.02 11.02 4.94 11.01 11.02 11.01 11.02-4.94 11.02-11.01Zm-1 0c0 5.52-4.49 10.01-10.02 10.01s-10.02-4.49-10.02-10.01 4.49-10.02 10.02-10.02 10.02 4.49 10.02 10.02Zm11.52 0c0-6.07-4.94-11.02-11.02-11.02s-11.02 4.94-11.02 11.02 4.94 11.01 11.02 11.01 11.02-4.94 11.02-11.01Zm-1 0c0 5.52-4.49 10.01-10.02 10.01s-10.02-4.49-10.02-10.01 4.49-10.02 10.02-10.02 10.02 4.49 10.02 10.02Zm-4.13-10.52c0-6.07-4.94-11.01-11.02-11.01s-11.02 4.94-11.02 11.01 4.94 11.02 11.02 11.02 11.02-4.94 11.02-11.02Zm-1 0c0 5.52-4.49 10.02-10.02 10.02s-10.02-4.49-10.02-10.02 4.49-10.01 10.02-10.01 10.02 4.49 10.02 10.01Zm-7.62 3.43-.71-.71-6.26 6.26.71.71 6.26-6.26Zm1.77 2.35-.71-.71-5.09 5.09.71.71 5.09-5.09Zm-122.82 44.36c1.29-3.89.98-8.06-.87-11.72a15.237 15.237 0 0 0-8.9-7.67c-8.04-2.65-16.74 1.73-19.4 9.77-2.65 8.04 1.73 16.74 9.77 19.4 1.59.53 3.21.78 4.8.78 6.45 0 12.47-4.1 14.59-10.55Zm-10.08-18.45c3.64 1.2 6.6 3.75 8.32 7.17s2.01 7.32.81 10.96a14.25 14.25 0 0 1-7.17 8.32c-3.42 1.73-7.32 2.01-10.96.81-7.52-2.48-11.61-10.62-9.13-18.13 1.99-6.03 7.62-9.86 13.65-9.86 1.49 0 3 .23 4.49.72Zm3.1 16.14c.67-2.03.51-4.2-.45-6.1a7.945 7.945 0 0 0-4.64-4 7.937 7.937 0 0 0-6.1.45 7.956 7.956 0 0 0-4 4.63c-.67 2.03-.51 4.2.45 6.1a7.945 7.945 0 0 0 4.64 4c.83.27 1.67.4 2.5.4 3.36 0 6.49-2.13 7.6-5.49Zm-5.4-9.15c1.77.59 3.21 1.83 4.05 3.5.84 1.67.98 3.57.4 5.34a7.007 7.007 0 0 1-8.84 4.45 6.968 6.968 0 0 1-4.05-3.5c-.84-1.67-.98-3.57-.4-5.34s1.83-3.21 3.5-4.06a6.944 6.944 0 0 1 5.34-.39Zm-9.15 3.82-7-2.31-.31.95 7 2.31.31-.95Zm7.09 2.34-.3.96h.02l.28-.96Zm-7.09-2.34-7-2.31-.31.95 7 2.31.31-.95Zm7.09 2.34-.3.96h.02l.28-.96Zm11.28-9.03-.67-.75-5.48 4.89.67.75 5.48-4.89Zm-11.28 9.03-.3.96h.02l.28-.96Zm3.37 14.92-1.5-7.2-.98.2 1.5 7.2.98-.2Zm6.52-3.83-.3.96h.02l.28-.96Zm-9.89-11.09-.3.96h.02l.28-.96Zm13.59 4.49-6.45-2.13-.31.95 6.45 2.13.31-.95Zm.35-6.14-.21-.98-6.59 1.37.21.98 6.59-1.37Zm-4.03 12.23-4.47-5.02-.75.67 4.47 5.02.75-.67Z" fill="#e1e1f4"/></svg>